<svg width="428" height="82" viewBox="0 0 428 82" fill="none" xmlns="http://www.w3.org/2000/svg">
<g filter="url(#filter0_d_128_172)">
<path d="M47.0026 54V28.5455H57.617C59.5227 28.5455 61.1178 28.8147 62.4021 29.3533C63.6947 29.8919 64.6642 30.646 65.3105 31.6154C65.9651 32.5849 66.2924 33.7076 66.2924 34.9837C66.2924 35.9531 66.0894 36.819 65.6834 37.5813C65.2774 38.3353 64.718 38.9609 64.0055 39.4581C63.2929 39.9553 62.4684 40.3033 61.5321 40.5021V40.7507C62.5595 40.8004 63.5083 41.078 64.3783 41.5835C65.2566 42.0889 65.9609 42.7932 66.4912 43.6964C67.0215 44.5913 67.2867 45.6519 67.2867 46.8782C67.2867 48.2454 66.9387 49.4676 66.2427 50.5447C65.5466 51.6136 64.5399 52.4588 63.2224 53.0803C61.905 53.6934 60.3058 54 58.4248 54H47.0026ZM53.155 49.0408H56.9582C58.2923 49.0408 59.2742 48.7881 59.9039 48.2827C60.5419 47.7772 60.8609 47.0729 60.8609 46.1697C60.8609 45.5152 60.7076 44.9517 60.401 44.4794C60.0945 43.9988 59.6595 43.6301 59.096 43.3732C58.5326 43.1081 57.8573 42.9755 57.0701 42.9755H53.155V49.0408ZM53.155 39.0107H56.5605C57.2317 39.0107 57.8282 38.8988 58.3503 38.6751C58.8723 38.4513 59.2783 38.1282 59.5683 37.7056C59.8666 37.283 60.0157 36.7734 60.0157 36.1768C60.0157 35.3234 59.7133 34.6522 59.1084 34.1634C58.5036 33.6745 57.6874 33.43 56.6599 33.43H53.155V39.0107Z" fill="#1E1E1E"/>
</g>
<path d="M169.34 52V30.1818H176.701C178.122 30.1818 179.304 30.4304 180.249 30.9276C181.201 31.4247 181.914 32.103 182.39 32.9624C182.866 33.8217 183.104 34.7983 183.104 35.892C183.104 36.8011 182.951 37.5788 182.646 38.2251C182.341 38.8714 181.925 39.3935 181.4 39.7912C180.874 40.1889 180.288 40.4766 179.642 40.6541V40.8246C180.345 40.8743 181.027 41.1229 181.687 41.5703C182.348 42.0107 182.891 42.6286 183.317 43.424C183.743 44.2195 183.956 45.1712 183.956 46.2791C183.956 47.38 183.711 48.3636 183.221 49.2301C182.731 50.0895 181.978 50.7678 180.963 51.2649C179.954 51.755 178.669 52 177.106 52H169.34ZM171.332 50.2102H177.106C178.789 50.2102 180.032 49.8374 180.835 49.0916C181.645 48.3459 182.049 47.4084 182.049 46.2791C182.049 45.4482 181.847 44.6953 181.442 44.0206C181.044 43.3388 180.48 42.799 179.748 42.4013C179.024 42.0036 178.172 41.8047 177.191 41.8047H171.332V50.2102ZM171.332 40.0362H176.883C177.742 40.0362 178.495 39.8587 179.141 39.5036C179.787 39.1484 180.292 38.6584 180.654 38.0334C181.016 37.4084 181.197 36.6946 181.197 35.892C181.197 34.7344 180.821 33.7933 180.068 33.0689C179.315 32.3374 178.193 31.9716 176.701 31.9716H171.332V40.0362ZM192.364 52V30.1818H205.02V31.9716H194.356V40.1854H204.349V41.9751H194.356V50.2102H205.233V52H192.364ZM213.776 52V30.1818H221.138C222.558 30.1818 223.741 30.4304 224.685 30.9276C225.637 31.4247 226.351 32.103 226.827 32.9624C227.303 33.8217 227.54 34.7983 227.54 35.892C227.54 36.8011 227.388 37.5788 227.082 38.2251C226.777 38.8714 226.361 39.3935 225.836 39.7912C225.31 40.1889 224.724 40.4766 224.078 40.6541V40.8246C224.781 40.8743 225.463 41.1229 226.124 41.5703C226.784 42.0107 227.327 42.6286 227.754 43.424C228.18 44.2195 228.393 45.1712 228.393 46.2791C228.393 47.38 228.148 48.3636 227.658 49.2301C227.168 50.0895 226.415 50.7678 225.399 51.2649C224.391 51.755 223.105 52 221.543 52H213.776ZM215.768 50.2102H221.543C223.226 50.2102 224.469 49.8374 225.271 49.0916C226.081 48.3459 226.486 47.4084 226.486 46.2791C226.486 45.4482 226.283 44.6953 225.879 44.0206C225.481 43.3388 224.916 42.799 224.185 42.4013C223.46 42.0036 222.608 41.8047 221.628 41.8047H215.768V50.2102ZM215.768 40.0362H221.319C222.178 40.0362 222.931 39.8587 223.577 39.5036C224.224 39.1484 224.728 38.6584 225.09 38.0334C225.452 37.4084 225.633 36.6946 225.633 35.892C225.633 34.7344 225.257 33.7933 224.504 33.0689C223.751 32.3374 222.629 31.9716 221.138 31.9716H215.768V40.0362ZM238.792 30.1818V52H236.8V30.1818H238.792ZM254.585 52H248.193V30.1818H254.969C257.05 30.1818 258.829 30.6151 260.306 31.4815C261.79 32.348 262.927 33.5909 263.715 35.2102C264.503 36.8295 264.898 38.772 264.898 41.0376C264.898 43.3246 264.493 45.2884 263.683 46.929C262.881 48.5625 261.709 49.8161 260.167 50.6896C258.633 51.5632 256.773 52 254.585 52ZM250.185 50.2102H254.468C256.343 50.2102 257.912 49.8409 259.177 49.1023C260.441 48.3636 261.389 47.3089 262.021 45.9382C262.653 44.5675 262.969 42.9339 262.969 41.0376C262.962 39.1555 262.65 37.5362 262.032 36.1797C261.421 34.8232 260.512 33.7827 259.305 33.0582C258.104 32.3338 256.62 31.9716 254.851 31.9716H250.185V50.2102ZM272.333 52H270.245L278.182 30.1818H280.312L288.249 52H286.161L279.321 32.7706H279.172L272.333 52ZM273.835 43.6371H284.659V45.4268H273.835V43.6371ZM307.435 35.6364C307.314 34.4219 306.778 33.456 305.826 32.7386C304.875 32.0213 303.678 31.6626 302.236 31.6626C301.22 31.6626 300.326 31.8366 299.551 32.1847C298.784 32.5327 298.181 33.0156 297.74 33.6335C297.307 34.2443 297.09 34.9403 297.09 35.7216C297.09 36.2969 297.215 36.8011 297.463 37.2344C297.712 37.6676 298.046 38.0405 298.465 38.353C298.891 38.6584 299.36 38.9212 299.871 39.1413C300.389 39.3615 300.911 39.5462 301.437 39.6953L303.738 40.3558C304.434 40.5476 305.13 40.7926 305.826 41.0909C306.522 41.3892 307.158 41.7656 307.733 42.2202C308.316 42.6676 308.781 43.218 309.129 43.8714C309.484 44.5178 309.661 45.2955 309.661 46.2045C309.661 47.3693 309.36 48.4169 308.756 49.3473C308.152 50.2777 307.286 51.0163 306.157 51.5632C305.027 52.103 303.674 52.3729 302.098 52.3729C300.613 52.3729 299.324 52.1278 298.23 51.6378C297.137 51.1406 296.277 50.4553 295.652 49.5817C295.027 48.7081 294.676 47.696 294.598 46.5455H296.643C296.714 47.4048 296.998 48.1328 297.495 48.7294C297.992 49.326 298.639 49.7805 299.434 50.093C300.23 50.3984 301.117 50.5511 302.098 50.5511C303.184 50.5511 304.15 50.37 304.995 50.0078C305.848 49.6385 306.515 49.1271 306.998 48.4737C307.488 47.8132 307.733 47.0462 307.733 46.1726C307.733 45.4339 307.541 44.8161 307.158 44.3189C306.774 43.8146 306.238 43.392 305.549 43.0511C304.867 42.7102 304.076 42.4084 303.174 42.1456L300.563 41.3786C298.852 40.8672 297.524 40.1605 296.579 39.2585C295.635 38.3565 295.162 37.206 295.162 35.8068C295.162 34.6349 295.475 33.6051 296.1 32.7173C296.732 31.8224 297.584 31.1264 298.657 30.6293C299.736 30.125 300.947 29.8729 302.289 29.8729C303.646 29.8729 304.846 30.1214 305.89 30.6186C306.934 31.1158 307.762 31.8011 308.372 32.6747C308.99 33.5412 309.321 34.5284 309.363 35.6364H307.435Z" fill="#232323"/>
<path d="M412.952 36.9926L419.474 42.7087L425.996 36.9926L428 38.7523L419.474 46.2407L410.948 38.7523L412.952 36.9926Z" fill="black"/>
<defs>
<filter id="filter0_d_128_172" x="43.0027" y="28.5454" width="28.2839" height="33.4546" filterUnits="userSpaceOnUse" color-interpolation-filters="sRGB">
<feFlood flood-opacity="0" result="BackgroundImageFix"/>
<feColorMatrix in="SourceAlpha" type="matrix" values="0 0 0 0 0 0 0 0 0 0 0 0 0 0 0 0 0 0 127 0" result="hardAlpha"/>
<feOffset dy="4"/>
<feGaussianBlur stdDeviation="2"/>
<feComposite in2="hardAlpha" operator="out"/>
<feColorMatrix type="matrix" values="0 0 0 0 0 0 0 0 0 0 0 0 0 0 0 0 0 0 0.25 0"/>
<feBlend mode="normal" in2="BackgroundImageFix" result="effect1_dropShadow_128_172"/>
<feBlend mode="normal" in="SourceGraphic" in2="effect1_dropShadow_128_172" result="shape"/>
</filter>
</defs>
</svg>
