<svg width="428" height="82" viewBox="0 0 428 82" fill="none" xmlns="http://www.w3.org/2000/svg">
<g filter="url(#filter0_d_128_172)">
<path d="M68.4162 37.7678H62.2017C62.1188 37.1297 61.949 36.5539 61.6921 36.0401C61.4352 35.5264 61.0955 35.0872 60.6729 34.7227C60.2503 34.3581 59.749 34.0805 59.169 33.8899C58.5973 33.6911 57.9634 33.5916 57.2674 33.5916C56.0328 33.5916 54.968 33.8941 54.0731 34.4989C53.1865 35.1038 52.503 35.978 52.0224 37.1214C51.5501 38.2649 51.3139 39.6487 51.3139 41.2727C51.3139 42.9631 51.5542 44.38 52.0348 45.5234C52.5237 46.6586 53.2073 47.5162 54.0856 48.0962C54.9722 48.668 56.0204 48.9538 57.2301 48.9538C57.9096 48.9538 58.5269 48.8668 59.082 48.6928C59.6455 48.5188 60.1385 48.2661 60.5611 47.9347C60.9919 47.5949 61.3441 47.1848 61.6175 46.7042C61.8993 46.2153 62.094 45.6643 62.2017 45.0511L68.4162 45.0884C68.3085 46.2153 67.9812 47.3256 67.4343 48.4194C66.8957 49.5131 66.1541 50.5116 65.2095 51.4148C64.2649 52.3097 63.1132 53.0223 61.7543 53.5526C60.4036 54.0829 58.8542 54.348 57.1058 54.348C54.8023 54.348 52.7391 53.8426 50.9162 52.8317C49.1016 51.8125 47.6681 50.3293 46.6158 48.3821C45.5634 46.4349 45.0373 44.0651 45.0373 41.2727C45.0373 38.4721 45.5717 36.0981 46.6406 34.1509C47.7095 32.2037 49.1554 30.7247 50.9783 29.7138C52.8012 28.7029 54.8437 28.1974 57.1058 28.1974C58.647 28.1974 60.0722 28.4129 61.3814 28.8438C62.6906 29.2663 63.8423 29.8878 64.8366 30.7081C65.831 31.5201 66.6388 32.5186 67.2603 33.7035C67.8817 34.8884 68.267 36.2431 68.4162 37.7678Z" fill="#1E1E1E"/>
</g>
<path d="M179.127 37H177.124C176.975 36.2543 176.705 35.5653 176.314 34.9332C175.931 34.294 175.448 33.7365 174.866 33.2607C174.283 32.7848 173.623 32.4155 172.884 32.1527C172.145 31.8899 171.346 31.7585 170.487 31.7585C169.109 31.7585 167.852 32.1172 166.716 32.8345C165.586 33.5518 164.681 34.6065 163.999 35.9986C163.324 37.3835 162.987 39.081 162.987 41.0909C162.987 43.1151 163.324 44.8196 163.999 46.2045C164.681 47.5895 165.586 48.6406 166.716 49.358C167.852 50.0682 169.109 50.4233 170.487 50.4233C171.346 50.4233 172.145 50.2919 172.884 50.0291C173.623 49.7663 174.283 49.4006 174.866 48.9318C175.448 48.456 175.931 47.8984 176.314 47.2592C176.705 46.62 176.975 45.9276 177.124 45.1818H179.127C178.949 46.1832 178.616 47.1172 178.125 47.9837C177.643 48.843 177.025 49.5959 176.272 50.2422C175.526 50.8885 174.667 51.3928 173.694 51.755C172.721 52.1172 171.652 52.2983 170.487 52.2983C168.655 52.2983 167.028 51.8402 165.608 50.924C164.187 50.0007 163.072 48.701 162.263 47.0249C161.46 45.3487 161.059 43.3707 161.059 41.0909C161.059 38.8111 161.46 36.8331 162.263 35.157C163.072 33.4808 164.187 32.1847 165.608 31.2685C167.028 30.3452 168.655 29.8835 170.487 29.8835C171.652 29.8835 172.721 30.0646 173.694 30.4268C174.667 30.782 175.526 31.2862 176.272 31.9396C177.025 32.5859 177.643 33.3388 178.125 34.1982C178.616 35.0575 178.949 35.9915 179.127 37ZM187.438 52H185.35L193.287 30.1818H195.418L203.355 52H201.266L194.427 32.7706H194.278L187.438 52ZM188.94 43.6371H199.764V45.4268H188.94V43.6371ZM210.694 52V30.1818H217.736C219.284 30.1818 220.577 30.4624 221.614 31.0234C222.658 31.5774 223.442 32.348 223.968 33.3352C224.501 34.3153 224.767 35.4411 224.767 36.7124C224.767 37.9837 224.501 39.1058 223.968 40.0788C223.442 41.0518 222.661 41.8118 221.624 42.3587C220.587 42.9055 219.302 43.179 217.768 43.179H211.77V41.3572H217.714C218.851 41.3572 219.795 41.169 220.548 40.7926C221.308 40.4162 221.873 39.88 222.242 39.1839C222.619 38.4879 222.807 37.6641 222.807 36.7124C222.807 35.7607 222.619 34.9297 222.242 34.2195C221.866 33.5021 221.298 32.9482 220.538 32.5575C219.785 32.1669 218.833 31.9716 217.683 31.9716H212.686V52H210.694ZM220.314 42.1562L225.683 52H223.382L218.066 42.1562H220.314ZM250.212 30.1818V52H248.273L235.382 33.7294H235.212V52H233.22V30.1818H235.148L248.081 48.4737H248.252V30.1818H250.212ZM259.613 52V30.1818H272.269V31.9716H261.605V40.1854H271.598V41.9751H261.605V50.2102H272.482V52H259.613ZM292.872 35.6364C292.751 34.4219 292.215 33.456 291.263 32.7386C290.311 32.0213 289.115 31.6626 287.673 31.6626C286.657 31.6626 285.762 31.8366 284.988 32.1847C284.221 32.5327 283.617 33.0156 283.177 33.6335C282.744 34.2443 282.527 34.9403 282.527 35.7216C282.527 36.2969 282.652 36.8011 282.9 37.2344C283.149 37.6676 283.483 38.0405 283.902 38.353C284.328 38.6584 284.796 38.9212 285.308 39.1413C285.826 39.3615 286.348 39.5462 286.874 39.6953L289.175 40.3558C289.871 40.5476 290.567 40.7926 291.263 41.0909C291.959 41.3892 292.595 41.7656 293.17 42.2202C293.752 42.6676 294.218 43.218 294.566 43.8714C294.921 44.5178 295.098 45.2955 295.098 46.2045C295.098 47.3693 294.796 48.4169 294.193 49.3473C293.589 50.2777 292.723 51.0163 291.593 51.5632C290.464 52.103 289.111 52.3729 287.534 52.3729C286.05 52.3729 284.761 52.1278 283.667 51.6378C282.573 51.1406 281.714 50.4553 281.089 49.5817C280.464 48.7081 280.112 47.696 280.034 46.5455H282.08C282.151 47.4048 282.435 48.1328 282.932 48.7294C283.429 49.326 284.076 49.7805 284.871 50.093C285.666 50.3984 286.554 50.5511 287.534 50.5511C288.621 50.5511 289.587 50.37 290.432 50.0078C291.284 49.6385 291.952 49.1271 292.435 48.4737C292.925 47.8132 293.17 47.0462 293.17 46.1726C293.17 45.4339 292.978 44.8161 292.595 44.3189C292.211 43.8146 291.675 43.392 290.986 43.0511C290.304 42.7102 289.512 42.4084 288.61 42.1456L286 41.3786C284.289 40.8672 282.961 40.1605 282.016 39.2585C281.071 38.3565 280.599 37.206 280.599 35.8068C280.599 34.6349 280.912 33.6051 281.537 32.7173C282.169 31.8224 283.021 31.1264 284.093 30.6293C285.173 30.125 286.384 29.8729 287.726 29.8729C289.083 29.8729 290.283 30.1214 291.327 30.6186C292.371 31.1158 293.198 31.8011 293.809 32.6747C294.427 33.5412 294.757 34.5284 294.8 35.6364H292.872Z" fill="#232323"/>
<path d="M412.952 36.9926L419.474 42.7087L425.996 36.9926L428 38.7523L419.474 46.2407L410.948 38.7523L412.952 36.9926Z" fill="black"/>
<defs>
<filter id="filter0_d_128_172" x="41.0374" y="28.1974" width="31.3789" height="34.1506" filterUnits="userSpaceOnUse" color-interpolation-filters="sRGB">
<feFlood flood-opacity="0" result="BackgroundImageFix"/>
<feColorMatrix in="SourceAlpha" type="matrix" values="0 0 0 0 0 0 0 0 0 0 0 0 0 0 0 0 0 0 127 0" result="hardAlpha"/>
<feOffset dy="4"/>
<feGaussianBlur stdDeviation="2"/>
<feComposite in2="hardAlpha" operator="out"/>
<feColorMatrix type="matrix" values="0 0 0 0 0 0 0 0 0 0 0 0 0 0 0 0 0 0 0.25 0"/>
<feBlend mode="normal" in2="BackgroundImageFix" result="effect1_dropShadow_128_172"/>
<feBlend mode="normal" in="SourceGraphic" in2="effect1_dropShadow_128_172" result="shape"/>
</filter>
</defs>
</svg>
