<svg width="428" height="82" viewBox="0 0 428 82" fill="none" xmlns="http://www.w3.org/2000/svg">
<g filter="url(#filter0_d_128_172)">
<path d="M47.8229 54V28.5455H65.5715V33.5419H53.9753V38.7621H64.6642V43.771H53.9753V49.0036H65.5715V54H47.8229Z" fill="#1E1E1E"/>
</g>
<path d="M150.119 52V30.1818H162.775V31.9716H152.111V40.1854H162.104V41.9751H152.111V50.2102H162.988V52H150.119ZM183.378 35.6364C183.257 34.4219 182.721 33.456 181.769 32.7386C180.818 32.0213 179.621 31.6626 178.179 31.6626C177.164 31.6626 176.269 31.8366 175.495 32.1847C174.728 32.5327 174.124 33.0156 173.684 33.6335C173.25 34.2443 173.034 34.9403 173.034 35.7216C173.034 36.2969 173.158 36.8011 173.407 37.2344C173.655 37.6676 173.989 38.0405 174.408 38.353C174.834 38.6584 175.303 38.9212 175.814 39.1413C176.333 39.3615 176.855 39.5462 177.38 39.6953L179.681 40.3558C180.377 40.5476 181.073 40.7926 181.769 41.0909C182.465 41.3892 183.101 41.7656 183.676 42.2202C184.259 42.6676 184.724 43.218 185.072 43.8714C185.427 44.5178 185.605 45.2955 185.605 46.2045C185.605 47.3693 185.303 48.4169 184.699 49.3473C184.095 50.2777 183.229 51.0163 182.1 51.5632C180.97 52.103 179.617 52.3729 178.041 52.3729C176.556 52.3729 175.267 52.1278 174.174 51.6378C173.08 51.1406 172.22 50.4553 171.595 49.5817C170.97 48.7081 170.619 47.696 170.541 46.5455H172.586C172.657 47.4048 172.941 48.1328 173.438 48.7294C173.936 49.326 174.582 49.7805 175.377 50.093C176.173 50.3984 177.061 50.5511 178.041 50.5511C179.127 50.5511 180.093 50.37 180.938 50.0078C181.791 49.6385 182.458 49.1271 182.941 48.4737C183.431 47.8132 183.676 47.0462 183.676 46.1726C183.676 45.4339 183.485 44.8161 183.101 44.3189C182.718 43.8146 182.181 43.392 181.492 43.0511C180.811 42.7102 180.019 42.4084 179.117 42.1456L176.507 41.3786C174.795 40.8672 173.467 40.1605 172.522 39.2585C171.578 38.3565 171.105 37.206 171.105 35.8068C171.105 34.6349 171.418 33.6051 172.043 32.7173C172.675 31.8224 173.527 31.1264 174.6 30.6293C175.679 30.125 176.89 29.8729 178.233 29.8729C179.589 29.8729 180.789 30.1214 181.833 30.6186C182.877 31.1158 183.705 31.8011 184.316 32.6747C184.934 33.5412 185.264 34.5284 185.306 35.6364H183.378ZM193.999 52V30.1818H201.041C202.589 30.1818 203.882 30.4801 204.918 31.0767C205.962 31.6662 206.747 32.4688 207.273 33.4844C207.806 34.5 208.072 35.6435 208.072 36.9148C208.072 38.1861 207.809 39.3331 207.284 40.3558C206.758 41.3714 205.977 42.1776 204.94 42.7741C203.903 43.3636 202.614 43.6584 201.073 43.6584H195.533V41.8686H201.019C202.163 41.8686 203.111 41.6555 203.864 41.2294C204.617 40.7962 205.178 40.2067 205.547 39.4609C205.923 38.7152 206.112 37.8665 206.112 36.9148C206.112 35.9631 205.923 35.1143 205.547 34.3686C205.178 33.6229 204.613 33.0369 203.853 32.6108C203.1 32.1847 202.145 31.9716 200.987 31.9716H195.991V52H193.999ZM216.349 52V30.1818H229.005V31.9716H218.341V40.1854H228.334V41.9751H218.341V50.2102H229.218V52H216.349ZM254.849 37H252.846C252.697 36.2543 252.427 35.5653 252.037 34.9332C251.653 34.294 251.17 33.7365 250.588 33.2607C250.006 32.7848 249.345 32.4155 248.606 32.1527C247.868 31.8899 247.069 31.7585 246.209 31.7585C244.832 31.7585 243.574 32.1172 242.438 32.8345C241.309 33.5518 240.403 34.6065 239.721 35.9986C239.047 37.3835 238.709 39.081 238.709 41.0909C238.709 43.1151 239.047 44.8196 239.721 46.2045C240.403 47.5895 241.309 48.6406 242.438 49.358C243.574 50.0682 244.832 50.4233 246.209 50.4233C247.069 50.4233 247.868 50.2919 248.606 50.0291C249.345 49.7663 250.006 49.4006 250.588 48.9318C251.17 48.456 251.653 47.8984 252.037 47.2592C252.427 46.62 252.697 45.9276 252.846 45.1818H254.849C254.672 46.1832 254.338 47.1172 253.848 47.9837C253.365 48.843 252.747 49.5959 251.994 50.2422C251.248 50.8885 250.389 51.3928 249.416 51.755C248.443 52.1172 247.374 52.2983 246.209 52.2983C244.377 52.2983 242.751 51.8402 241.33 50.924C239.91 50.0007 238.795 48.701 237.985 47.0249C237.182 45.3487 236.781 43.3707 236.781 41.0909C236.781 38.8111 237.182 36.8331 237.985 35.157C238.795 33.4808 239.91 32.1847 241.33 31.2685C242.751 30.3452 244.377 29.8835 246.209 29.8835C247.374 29.8835 248.443 30.0646 249.416 30.4268C250.389 30.782 251.248 31.2862 251.994 31.9396C252.747 32.5859 253.365 33.3388 253.848 34.1982C254.338 35.0575 254.672 35.9915 254.849 37ZM265.121 30.1818V52H263.129V30.1818H265.121ZM274.554 52H272.466L280.402 30.1818H282.533L290.47 52H288.382L281.542 32.7706H281.393L274.554 52ZM276.056 43.6371H286.88V45.4268H276.056V43.6371ZM309.656 35.6364C309.535 34.4219 308.999 33.456 308.047 32.7386C307.095 32.0213 305.899 31.6626 304.457 31.6626C303.441 31.6626 302.546 31.8366 301.772 32.1847C301.005 32.5327 300.402 33.0156 299.961 33.6335C299.528 34.2443 299.311 34.9403 299.311 35.7216C299.311 36.2969 299.436 36.8011 299.684 37.2344C299.933 37.6676 300.267 38.0405 300.686 38.353C301.112 38.6584 301.581 38.9212 302.092 39.1413C302.61 39.3615 303.132 39.5462 303.658 39.6953L305.959 40.3558C306.655 40.5476 307.351 40.7926 308.047 41.0909C308.743 41.3892 309.379 41.7656 309.954 42.2202C310.537 42.6676 311.002 43.218 311.35 43.8714C311.705 44.5178 311.882 45.2955 311.882 46.2045C311.882 47.3693 311.581 48.4169 310.977 49.3473C310.373 50.2777 309.507 51.0163 308.377 51.5632C307.248 52.103 305.895 52.3729 304.318 52.3729C302.834 52.3729 301.545 52.1278 300.451 51.6378C299.358 51.1406 298.498 50.4553 297.873 49.5817C297.248 48.7081 296.897 47.696 296.818 46.5455H298.864C298.935 47.4048 299.219 48.1328 299.716 48.7294C300.213 49.326 300.86 49.7805 301.655 50.093C302.451 50.3984 303.338 50.5511 304.318 50.5511C305.405 50.5511 306.371 50.37 307.216 50.0078C308.068 49.6385 308.736 49.1271 309.219 48.4737C309.709 47.8132 309.954 47.0462 309.954 46.1726C309.954 45.4339 309.762 44.8161 309.379 44.3189C308.995 43.8146 308.459 43.392 307.77 43.0511C307.088 42.7102 306.296 42.4084 305.394 42.1456L302.784 41.3786C301.073 40.8672 299.745 40.1605 298.8 39.2585C297.855 38.3565 297.383 37.206 297.383 35.8068C297.383 34.6349 297.696 33.6051 298.321 32.7173C298.953 31.8224 299.805 31.1264 300.877 30.6293C301.957 30.125 303.168 29.8729 304.51 29.8729C305.867 29.8729 307.067 30.1214 308.111 30.6186C309.155 31.1158 309.983 31.8011 310.593 32.6747C311.211 33.5412 311.542 34.5284 311.584 35.6364H309.656Z" fill="#232323"/>
<path d="M412.952 36.9926L419.474 42.7087L425.996 36.9926L428 38.7523L419.474 46.2407L410.948 38.7523L412.952 36.9926Z" fill="black"/>
<defs>
<filter id="filter0_d_128_172" x="43.823" y="28.5454" width="25.7485" height="33.4546" filterUnits="userSpaceOnUse" color-interpolation-filters="sRGB">
<feFlood flood-opacity="0" result="BackgroundImageFix"/>
<feColorMatrix in="SourceAlpha" type="matrix" values="0 0 0 0 0 0 0 0 0 0 0 0 0 0 0 0 0 0 127 0" result="hardAlpha"/>
<feOffset dy="4"/>
<feGaussianBlur stdDeviation="2"/>
<feComposite in2="hardAlpha" operator="out"/>
<feColorMatrix type="matrix" values="0 0 0 0 0 0 0 0 0 0 0 0 0 0 0 0 0 0 0.25 0"/>
<feBlend mode="normal" in2="BackgroundImageFix" result="effect1_dropShadow_128_172"/>
<feBlend mode="normal" in="SourceGraphic" in2="effect1_dropShadow_128_172" result="shape"/>
</filter>
</defs>
</svg>
