<svg width="428" height="82" viewBox="0 0 428 82" fill="none" xmlns="http://www.w3.org/2000/svg">
<g filter="url(#filter0_d_128_172)">
<path d="M48.3869 54V28.5455H65.7626V33.5419H54.5392V38.7621H64.6564V43.771H54.5392V54H48.3869Z" fill="#1E1E1E"/>
</g>
<path d="M100.621 49V32.2727H110.299V33.6449H102.148V39.9421H109.54V41.3143H102.148V49H100.621ZM116.857 49V32.2727H122.256C123.443 32.2727 124.434 32.4878 125.229 32.918C126.029 33.3427 126.631 33.9335 127.034 34.6903C127.442 35.4418 127.647 36.3048 127.647 37.2795C127.647 38.2541 127.442 39.1145 127.034 39.8604C126.631 40.6064 126.032 41.189 125.237 41.6083C124.442 42.0276 123.457 42.2372 122.28 42.2372H117.682V40.8406H122.24C123.111 40.8406 123.835 40.6963 124.412 40.4077C124.995 40.1191 125.428 39.708 125.711 39.1744C125.999 38.6407 126.144 38.0091 126.144 37.2795C126.144 36.5498 125.999 35.9128 125.711 35.3683C125.422 34.8183 124.987 34.3936 124.404 34.0941C123.827 33.7946 123.097 33.6449 122.215 33.6449H118.385V49H116.857ZM124.233 41.4531L128.349 49H126.585L122.509 41.4531H124.233ZM145.276 32.2727H146.803V43.348C146.803 44.486 146.536 45.5043 146.003 46.4027C145.469 47.2957 144.726 48.0008 143.773 48.5181C142.825 49.0299 141.723 49.2859 140.465 49.2859C139.213 49.2859 138.11 49.0272 137.157 48.5099C136.204 47.9927 135.461 47.2875 134.927 46.3945C134.394 45.5015 134.127 44.486 134.127 43.348V32.2727H135.654V43.2418C135.654 44.1294 135.853 44.9216 136.251 45.6186C136.648 46.3101 137.206 46.8546 137.925 47.2521C138.649 47.6496 139.496 47.8484 140.465 47.8484C141.434 47.8484 142.281 47.6496 143.005 47.2521C143.729 46.8546 144.287 46.3101 144.679 45.6186C145.077 44.9216 145.276 44.1294 145.276 43.2418V32.2727ZM152.989 33.6449V32.2727H165.118V33.6449H159.817V49H158.29V33.6449H152.989ZM169.387 49H167.786L173.871 32.2727H175.505L181.59 49H179.989L174.745 34.2575H174.631L169.387 49ZM170.539 42.5884H178.837V43.9606H170.539V42.5884ZM196.299 36.4545C196.206 35.5234 195.795 34.7829 195.066 34.233C194.336 33.683 193.418 33.408 192.313 33.408C191.534 33.408 190.848 33.5414 190.255 33.8082C189.667 34.075 189.204 34.4453 188.866 34.919C188.534 35.3873 188.368 35.9209 188.368 36.5199C188.368 36.9609 188.463 37.3475 188.654 37.6797C188.845 38.0118 189.1 38.2977 189.422 38.5373C189.748 38.7714 190.108 38.9729 190.5 39.1417C190.897 39.3105 191.298 39.4521 191.701 39.5664L193.465 40.0728C193.998 40.2198 194.532 40.4077 195.066 40.6364C195.599 40.8651 196.087 41.1536 196.528 41.5021C196.974 41.8452 197.331 42.2672 197.598 42.7681C197.87 43.2636 198.006 43.8598 198.006 44.5568C198.006 45.4498 197.774 46.253 197.312 46.9663C196.849 47.6796 196.185 48.2459 195.319 48.6651C194.453 49.079 193.416 49.2859 192.207 49.2859C191.069 49.2859 190.081 49.098 189.242 48.7223C188.404 48.3411 187.745 47.8157 187.266 47.146C186.786 46.4762 186.517 45.7003 186.457 44.8182H188.025C188.08 45.477 188.297 46.0352 188.678 46.4925C189.06 46.9499 189.555 47.2984 190.165 47.538C190.775 47.7721 191.455 47.8892 192.207 47.8892C193.04 47.8892 193.781 47.7504 194.428 47.4727C195.082 47.1895 195.594 46.7975 195.964 46.2965C196.34 45.7901 196.528 45.2021 196.528 44.5323C196.528 43.966 196.381 43.4923 196.087 43.1112C195.792 42.7246 195.381 42.4006 194.853 42.1392C194.33 41.8778 193.723 41.6464 193.032 41.445L191.031 40.8569C189.719 40.4648 188.7 39.9231 187.976 39.2315C187.252 38.54 186.89 37.6579 186.89 36.5852C186.89 35.6868 187.129 34.8973 187.609 34.2166C188.093 33.5305 188.747 32.9969 189.569 32.6158C190.396 32.2292 191.325 32.0359 192.354 32.0359C193.394 32.0359 194.314 32.2264 195.115 32.6076C195.915 32.9888 196.549 33.5142 197.018 34.1839C197.491 34.8482 197.745 35.6051 197.777 36.4545H196.299ZM212.102 32.2727H213.866L218.824 40.2116H218.971L223.929 32.2727H225.693L219.657 41.7553V49H218.138V41.7553L212.102 32.2727ZM240.575 32.2727L245.802 47.0153H245.949L251.176 32.2727H252.777L246.692 49H245.059L238.974 32.2727H240.575ZM258.404 49V32.2727H268.107V33.6449H259.932V39.9421H267.593V41.3143H259.932V47.6278H268.271V49H258.404ZM274.82 49V32.2727H280.219C281.406 32.2727 282.397 32.4878 283.192 32.918C283.993 33.3427 284.594 33.9335 284.997 34.6903C285.406 35.4418 285.61 36.3048 285.61 37.2795C285.61 38.2541 285.406 39.1145 284.997 39.8604C284.594 40.6064 283.995 41.189 283.2 41.6083C282.405 42.0276 281.42 42.2372 280.244 42.2372H275.645V40.8406H280.203C281.074 40.8406 281.798 40.6963 282.375 40.4077C282.958 40.1191 283.391 39.708 283.674 39.1744C283.963 38.6407 284.107 38.0091 284.107 37.2795C284.107 36.5498 283.963 35.9128 283.674 35.3683C283.386 34.8183 282.95 34.3936 282.367 34.0941C281.79 33.7946 281.06 33.6449 280.178 33.6449H276.348V49H274.82ZM282.196 41.4531L286.312 49H284.548L280.472 41.4531H282.196ZM296.991 49H292.09V32.2727H297.285C298.88 32.2727 300.244 32.6049 301.377 33.2692C302.515 33.9335 303.386 34.8864 303.99 36.1278C304.595 37.3693 304.897 38.8585 304.897 40.5955C304.897 42.3488 304.587 43.8544 303.966 45.1122C303.351 46.3646 302.452 47.3256 301.271 47.9954C300.094 48.6651 298.668 49 296.991 49ZM293.618 47.6278H296.901C298.338 47.6278 299.542 47.3447 300.511 46.7784C301.48 46.2121 302.207 45.4035 302.692 44.3526C303.176 43.3017 303.419 42.0494 303.419 40.5955C303.413 39.1526 303.174 37.9111 302.7 36.8711C302.232 35.8311 301.535 35.0334 300.609 34.478C299.689 33.9226 298.551 33.6449 297.195 33.6449H293.618V47.6278ZM322.508 32.2727H324.035V43.348C324.035 44.486 323.768 45.5043 323.235 46.4027C322.701 47.2957 321.958 48.0008 321.005 48.5181C320.058 49.0299 318.955 49.2859 317.697 49.2859C316.445 49.2859 315.342 49.0272 314.389 48.5099C313.436 47.9927 312.693 47.2875 312.159 46.3945C311.626 45.5015 311.359 44.486 311.359 43.348V32.2727H312.886V43.2418C312.886 44.1294 313.085 44.9216 313.483 45.6186C313.88 46.3101 314.438 46.8546 315.157 47.2521C315.881 47.6496 316.728 47.8484 317.697 47.8484C318.666 47.8484 319.513 47.6496 320.237 47.2521C320.961 46.8546 321.52 46.3101 321.912 45.6186C322.309 44.9216 322.508 44.1294 322.508 43.2418V32.2727ZM331.234 49V32.2727H336.633C337.82 32.2727 338.811 32.4878 339.606 32.918C340.406 33.3427 341.008 33.9335 341.411 34.6903C341.819 35.4418 342.024 36.3048 342.024 37.2795C342.024 38.2541 341.819 39.1145 341.411 39.8604C341.008 40.6064 340.409 41.189 339.614 41.6083C338.819 42.0276 337.834 42.2372 336.658 42.2372H332.059V40.8406H336.617C337.488 40.8406 338.212 40.6963 338.789 40.4077C339.372 40.1191 339.805 39.708 340.088 39.1744C340.377 38.6407 340.521 38.0091 340.521 37.2795C340.521 36.5498 340.377 35.9128 340.088 35.3683C339.799 34.8183 339.364 34.3936 338.781 34.0941C338.204 33.7946 337.474 33.6449 336.592 33.6449H332.762V49H331.234ZM338.61 41.4531L342.726 49H340.962L336.886 41.4531H338.61ZM348.529 49H346.928L353.013 32.2727H354.646L360.731 49H359.13L353.886 34.2575H353.772L348.529 49ZM349.68 42.5884H357.978V43.9606H349.68V42.5884ZM375.44 36.4545C375.348 35.5234 374.936 34.7829 374.207 34.233C373.477 33.683 372.56 33.408 371.454 33.408C370.676 33.408 369.99 33.5414 369.396 33.8082C368.808 34.075 368.345 34.4453 368.008 34.919C367.675 35.3873 367.509 35.9209 367.509 36.5199C367.509 36.9609 367.605 37.3475 367.795 37.6797C367.986 38.0118 368.242 38.2977 368.563 38.5373C368.89 38.7714 369.249 38.9729 369.641 39.1417C370.039 39.3105 370.439 39.4521 370.842 39.5664L372.606 40.0728C373.14 40.2198 373.673 40.4077 374.207 40.6364C374.74 40.8651 375.228 41.1536 375.669 41.5021C376.115 41.8452 376.472 42.2672 376.739 42.7681C377.011 43.2636 377.147 43.8598 377.147 44.5568C377.147 45.4498 376.916 46.253 376.453 46.9663C375.99 47.6796 375.326 48.2459 374.46 48.6651C373.594 49.079 372.557 49.2859 371.348 49.2859C370.21 49.2859 369.222 49.098 368.383 48.7223C367.545 48.3411 366.886 47.8157 366.407 47.146C365.928 46.4762 365.658 45.7003 365.598 44.8182H367.166C367.221 45.477 367.439 46.0352 367.82 46.4925C368.201 46.9499 368.696 47.2984 369.306 47.538C369.916 47.7721 370.597 47.8892 371.348 47.8892C372.181 47.8892 372.922 47.7504 373.57 47.4727C374.223 47.1895 374.735 46.7975 375.105 46.2965C375.481 45.7901 375.669 45.2021 375.669 44.5323C375.669 43.966 375.522 43.4923 375.228 43.1112C374.934 42.7246 374.523 42.4006 373.994 42.1392C373.472 41.8778 372.865 41.6464 372.173 41.445L370.172 40.8569C368.86 40.4648 367.842 39.9231 367.117 39.2315C366.393 38.54 366.031 37.6579 366.031 36.5852C366.031 35.6868 366.271 34.8973 366.75 34.2166C367.234 33.5305 367.888 32.9969 368.71 32.6158C369.538 32.2292 370.466 32.0359 371.495 32.0359C372.535 32.0359 373.455 32.2264 374.256 32.6076C375.056 32.9888 375.691 33.5142 376.159 34.1839C376.633 34.8482 376.886 35.6051 376.918 36.4545H375.44Z" fill="#232323"/>
<path d="M412.952 36.9926L419.474 42.7087L425.996 36.9926L428 38.7523L419.474 46.2407L410.948 38.7523L412.952 36.9926Z" fill="black"/>
<defs>
<filter id="filter0_d_128_172" x="44.387" y="28.5454" width="25.3757" height="33.4546" filterUnits="userSpaceOnUse" color-interpolation-filters="sRGB">
<feFlood flood-opacity="0" result="BackgroundImageFix"/>
<feColorMatrix in="SourceAlpha" type="matrix" values="0 0 0 0 0 0 0 0 0 0 0 0 0 0 0 0 0 0 127 0" result="hardAlpha"/>
<feOffset dy="4"/>
<feGaussianBlur stdDeviation="2"/>
<feComposite in2="hardAlpha" operator="out"/>
<feColorMatrix type="matrix" values="0 0 0 0 0 0 0 0 0 0 0 0 0 0 0 0 0 0 0.25 0"/>
<feBlend mode="normal" in2="BackgroundImageFix" result="effect1_dropShadow_128_172"/>
<feBlend mode="normal" in="SourceGraphic" in2="effect1_dropShadow_128_172" result="shape"/>
</filter>
</defs>
</svg>
