<svg width="428" height="82" viewBox="0 0 428 82" fill="none" xmlns="http://www.w3.org/2000/svg">
<g filter="url(#filter0_d_128_172)">
<path d="M48.6603 54V28.5455H54.8127V49.0036H65.4022V54H48.6603Z" fill="#1E1E1E"/>
</g>
<path d="M154.072 52V30.1818H156.065V50.2102H166.462V52H154.072ZM175.956 52H173.868L181.805 30.1818H183.936L191.872 52H189.784L182.945 32.7706H182.796L175.956 52ZM177.458 43.6371H188.282V45.4268H177.458V43.6371ZM181.986 27.9126L184.713 23.076H186.961L183.691 27.9126H181.986ZM215.274 37H213.272C213.122 36.2543 212.853 35.5653 212.462 34.9332C212.078 34.294 211.595 33.7365 211.013 33.2607C210.431 32.7848 209.77 32.4155 209.032 32.1527C208.293 31.8899 207.494 31.7585 206.635 31.7585C205.257 31.7585 204 32.1172 202.863 32.8345C201.734 33.5518 200.828 34.6065 200.147 35.9986C199.472 37.3835 199.135 39.081 199.135 41.0909C199.135 43.1151 199.472 44.8196 200.147 46.2045C200.828 47.5895 201.734 48.6406 202.863 49.358C204 50.0682 205.257 50.4233 206.635 50.4233C207.494 50.4233 208.293 50.2919 209.032 50.0291C209.77 49.7663 210.431 49.4006 211.013 48.9318C211.595 48.456 212.078 47.8984 212.462 47.2592C212.853 46.62 213.122 45.9276 213.272 45.1818H215.274C215.097 46.1832 214.763 47.1172 214.273 47.9837C213.79 48.843 213.172 49.5959 212.419 50.2422C211.674 50.8885 210.814 51.3928 209.841 51.755C208.868 52.1172 207.799 52.2983 206.635 52.2983C204.802 52.2983 203.176 51.8402 201.755 50.924C200.335 50.0007 199.22 48.701 198.41 47.0249C197.608 45.3487 197.206 43.3707 197.206 41.0909C197.206 38.8111 197.608 36.8331 198.41 35.157C199.22 33.4808 200.335 32.1847 201.755 31.2685C203.176 30.3452 204.802 29.8835 206.635 29.8835C207.799 29.8835 208.868 30.0646 209.841 30.4268C210.814 30.782 211.674 31.2862 212.419 31.9396C213.172 32.5859 213.79 33.3388 214.273 34.1982C214.763 35.0575 215.097 35.9915 215.274 37ZM222.233 31.9716V30.1818H238.053V31.9716H231.139V52H229.147V31.9716H222.233ZM246.138 52V30.1818H258.795V31.9716H248.131V40.1854H258.123V41.9751H248.131V50.2102H259.008V52H246.138ZM285.438 41.0909C285.438 43.3636 285.033 45.3416 284.223 47.0249C283.414 48.701 282.299 50.0007 280.878 50.924C279.465 51.8402 277.838 52.2983 275.999 52.2983C274.16 52.2983 272.53 51.8402 271.109 50.924C269.696 50.0007 268.584 48.701 267.775 47.0249C266.972 45.3416 266.571 43.3636 266.571 41.0909C266.571 38.8182 266.972 36.8437 267.775 35.1676C268.584 33.4844 269.699 32.1847 271.12 31.2685C272.54 30.3452 274.167 29.8835 275.999 29.8835C277.838 29.8835 279.465 30.3452 280.878 31.2685C282.299 32.1847 283.414 33.4844 284.223 35.1676C285.033 36.8437 285.438 38.8182 285.438 41.0909ZM283.499 41.0909C283.499 39.1378 283.172 37.4652 282.519 36.0732C281.865 34.674 280.974 33.6051 279.845 32.8665C278.716 32.1278 277.434 31.7585 275.999 31.7585C274.571 31.7585 273.293 32.1278 272.164 32.8665C271.035 33.6051 270.14 34.6705 269.479 36.0625C268.826 37.4545 268.499 39.1307 268.499 41.0909C268.499 43.044 268.826 44.7166 269.479 46.1087C270.133 47.5007 271.024 48.5696 272.153 49.3153C273.282 50.054 274.564 50.4233 275.999 50.4233C277.434 50.4233 278.716 50.054 279.845 49.3153C280.981 48.5767 281.876 47.5114 282.53 46.1193C283.183 44.7202 283.506 43.044 283.499 41.0909ZM305.703 35.6364C305.582 34.4219 305.046 33.456 304.094 32.7386C303.142 32.0213 301.945 31.6626 300.504 31.6626C299.488 31.6626 298.593 31.8366 297.819 32.1847C297.052 32.5327 296.448 33.0156 296.008 33.6335C295.575 34.2443 295.358 34.9403 295.358 35.7216C295.358 36.2969 295.482 36.8011 295.731 37.2344C295.98 37.6676 296.313 38.0405 296.732 38.353C297.158 38.6584 297.627 38.9212 298.139 39.1413C298.657 39.3615 299.179 39.5462 299.705 39.6953L302.006 40.3558C302.702 40.5476 303.398 40.7926 304.094 41.0909C304.79 41.3892 305.426 41.7656 306.001 42.2202C306.583 42.6676 307.048 43.218 307.396 43.8714C307.752 44.5178 307.929 45.2955 307.929 46.2045C307.929 47.3693 307.627 48.4169 307.024 49.3473C306.42 50.2777 305.553 51.0163 304.424 51.5632C303.295 52.103 301.942 52.3729 300.365 52.3729C298.881 52.3729 297.592 52.1278 296.498 51.6378C295.404 51.1406 294.545 50.4553 293.92 49.5817C293.295 48.7081 292.943 47.696 292.865 46.5455H294.911C294.982 47.4048 295.266 48.1328 295.763 48.7294C296.26 49.326 296.906 49.7805 297.702 50.093C298.497 50.3984 299.385 50.5511 300.365 50.5511C301.452 50.5511 302.418 50.37 303.263 50.0078C304.115 49.6385 304.783 49.1271 305.266 48.4737C305.756 47.8132 306.001 47.0462 306.001 46.1726C306.001 45.4339 305.809 44.8161 305.426 44.3189C305.042 43.8146 304.506 43.392 303.817 43.0511C303.135 42.7102 302.343 42.4084 301.441 42.1456L298.831 41.3786C297.119 40.8672 295.791 40.1605 294.847 39.2585C293.902 38.3565 293.43 37.206 293.43 35.8068C293.43 34.6349 293.742 33.6051 294.367 32.7173C294.999 31.8224 295.852 31.1264 296.924 30.6293C298.004 30.125 299.215 29.8729 300.557 29.8729C301.913 29.8729 303.114 30.1214 304.158 30.6186C305.202 31.1158 306.029 31.8011 306.64 32.6747C307.258 33.5412 307.588 34.5284 307.631 35.6364H305.703Z" fill="#232323"/>
<path d="M412.952 36.9926L419.474 42.7087L425.996 36.9926L428 38.7523L419.474 46.2407L410.948 38.7523L412.952 36.9926Z" fill="black"/>
<defs>
<filter id="filter0_d_128_172" x="44.6604" y="28.5454" width="24.7417" height="33.4546" filterUnits="userSpaceOnUse" color-interpolation-filters="sRGB">
<feFlood flood-opacity="0" result="BackgroundImageFix"/>
<feColorMatrix in="SourceAlpha" type="matrix" values="0 0 0 0 0 0 0 0 0 0 0 0 0 0 0 0 0 0 127 0" result="hardAlpha"/>
<feOffset dy="4"/>
<feGaussianBlur stdDeviation="2"/>
<feComposite in2="hardAlpha" operator="out"/>
<feColorMatrix type="matrix" values="0 0 0 0 0 0 0 0 0 0 0 0 0 0 0 0 0 0 0.25 0"/>
<feBlend mode="normal" in2="BackgroundImageFix" result="effect1_dropShadow_128_172"/>
<feBlend mode="normal" in="SourceGraphic" in2="effect1_dropShadow_128_172" result="shape"/>
</filter>
</defs>
</svg>
