<svg width="428" height="82" viewBox="0 0 428 82" fill="none" xmlns="http://www.w3.org/2000/svg">
<g filter="url(#filter0_d_128_172)">
<path d="M45.9477 33.5419V28.5455H67.4623V33.5419H59.7439V54H53.6785V33.5419H45.9477Z" fill="#1E1E1E"/>
</g>
<path d="M105.639 33.6449V32.2727H117.767V33.6449H112.467V49H110.939V33.6449H105.639ZM136.983 40.6364C136.983 42.3788 136.673 43.8952 136.052 45.1857C135.431 46.4708 134.576 47.4672 133.487 48.1751C132.404 48.8775 131.157 49.2287 129.747 49.2287C128.336 49.2287 127.087 48.8775 125.998 48.1751C124.914 47.4672 124.062 46.4708 123.441 45.1857C122.826 43.8952 122.518 42.3788 122.518 40.6364C122.518 38.8939 122.826 37.3802 123.441 36.0952C124.062 34.8047 124.917 33.8082 126.006 33.1058C127.095 32.398 128.342 32.044 129.747 32.044C131.157 32.044 132.404 32.398 133.487 33.1058C134.576 33.8082 135.431 34.8047 136.052 36.0952C136.673 37.3802 136.983 38.8939 136.983 40.6364ZM135.497 40.6364C135.497 39.139 135.246 37.8567 134.745 36.7894C134.244 35.7167 133.561 34.8973 132.695 34.331C131.829 33.7647 130.847 33.4815 129.747 33.4815C128.652 33.4815 127.672 33.7647 126.806 34.331C125.941 34.8973 125.254 35.714 124.748 36.7812C124.247 37.8485 123.997 39.1335 123.997 40.6364C123.997 42.1338 124.247 43.4161 124.748 44.4833C125.249 45.5505 125.932 46.37 126.798 46.9418C127.664 47.508 128.647 47.7912 129.747 47.7912C130.847 47.7912 131.829 47.508 132.695 46.9418C133.566 46.3755 134.252 45.5587 134.753 44.4915C135.254 43.4188 135.502 42.1338 135.497 40.6364ZM143.437 49V32.2727H148.836C150.023 32.2727 151.014 32.4878 151.809 32.918C152.609 33.3427 153.211 33.9335 153.614 34.6903C154.022 35.4418 154.226 36.3048 154.226 37.2795C154.226 38.2541 154.022 39.1145 153.614 39.8604C153.211 40.6064 152.612 41.189 151.817 41.6083C151.022 42.0276 150.036 42.2372 148.86 42.2372H144.262V40.8406H148.819C149.691 40.8406 150.415 40.6963 150.992 40.4077C151.575 40.1191 152.008 39.708 152.291 39.1744C152.579 38.6407 152.724 38.0091 152.724 37.2795C152.724 36.5498 152.579 35.9128 152.291 35.3683C152.002 34.8183 151.566 34.3936 150.984 34.0941C150.407 33.7946 149.677 33.6449 148.795 33.6449H144.964V49H143.437ZM150.812 41.4531L154.929 49H153.165L149.089 41.4531H150.812ZM159.694 33.6449V32.2727H171.823V33.6449H166.522V49H164.995V33.6449H159.694ZM179.549 32.2727V49H178.021V32.2727H179.549ZM186.756 49V32.2727H188.283V47.6278H196.255V49H186.756ZM202.454 49V32.2727H203.981V47.6278H211.952V49H202.454ZM219.231 49H217.63L223.715 32.2727H225.349L231.434 49H229.833L224.589 34.2575H224.475L219.231 49ZM220.383 42.5884H228.681V43.9606H220.383V42.5884ZM246.143 36.4545C246.05 35.5234 245.639 34.7829 244.91 34.233C244.18 33.683 243.262 33.408 242.157 33.408C241.378 33.408 240.692 33.5414 240.099 33.8082C239.511 34.075 239.048 34.4453 238.71 34.919C238.378 35.3873 238.212 35.9209 238.212 36.5199C238.212 36.9609 238.307 37.3475 238.498 37.6797C238.689 38.0118 238.944 38.2977 239.266 38.5373C239.592 38.7714 239.952 38.9729 240.344 39.1417C240.741 39.3105 241.142 39.4521 241.544 39.5664L243.309 40.0728C243.842 40.2198 244.376 40.4077 244.91 40.6364C245.443 40.8651 245.93 41.1536 246.372 41.5021C246.818 41.8452 247.175 42.2672 247.441 42.7681C247.714 43.2636 247.85 43.8598 247.85 44.5568C247.85 45.4498 247.618 46.253 247.156 46.9663C246.693 47.6796 246.028 48.2459 245.163 48.6651C244.297 49.079 243.26 49.2859 242.051 49.2859C240.913 49.2859 239.925 49.098 239.086 48.7223C238.247 48.3411 237.589 47.8157 237.109 47.146C236.63 46.4762 236.361 45.7003 236.301 44.8182H237.869C237.924 45.477 238.141 46.0352 238.522 46.4925C238.904 46.9499 239.399 47.2984 240.009 47.538C240.619 47.7721 241.299 47.8892 242.051 47.8892C242.884 47.8892 243.624 47.7504 244.272 47.4727C244.926 47.1895 245.438 46.7975 245.808 46.2965C246.184 45.7901 246.372 45.2021 246.372 44.5323C246.372 43.966 246.225 43.4923 245.93 43.1112C245.636 42.7246 245.225 42.4006 244.697 42.1392C244.174 41.8778 243.567 41.6464 242.876 41.445L240.875 40.8569C239.562 40.4648 238.544 39.9231 237.82 39.2315C237.096 38.54 236.734 37.6579 236.734 36.5852C236.734 35.6868 236.973 34.8973 237.453 34.2166C237.937 33.5305 238.591 32.9969 239.413 32.6158C240.24 32.2292 241.169 32.0359 242.198 32.0359C243.238 32.0359 244.158 32.2264 244.959 32.6076C245.759 32.9888 246.393 33.5142 246.862 34.1839C247.335 34.8482 247.589 35.6051 247.621 36.4545H246.143ZM261.946 32.2727H263.71L268.668 40.2116H268.815L273.773 32.2727H275.537L269.501 41.7553V49H267.982V41.7553L261.946 32.2727ZM290.394 49V32.2727H295.793C296.98 32.2727 297.971 32.5014 298.766 32.9588C299.567 33.4107 300.168 34.026 300.571 34.8047C300.98 35.5833 301.184 36.46 301.184 37.4347C301.184 38.4093 300.982 39.2887 300.579 40.0728C300.176 40.8514 299.578 41.4695 298.783 41.9268C297.988 42.3788 296.999 42.6048 295.818 42.6048H291.571V41.2326H295.777C296.654 41.2326 297.38 41.0692 297.958 40.7425C298.535 40.4104 298.965 39.9585 299.248 39.3867C299.537 38.815 299.681 38.1643 299.681 37.4347C299.681 36.705 299.537 36.0543 299.248 35.4826C298.965 34.9109 298.532 34.4616 297.949 34.1349C297.372 33.8082 296.64 33.6449 295.752 33.6449H291.922V49H290.394ZM305.847 49H304.246L310.331 32.2727H311.964L318.049 49H316.448L311.205 34.2575H311.09L305.847 49ZM306.999 42.5884H315.297V43.9606H306.999V42.5884ZM336.703 32.2727V49H335.217L325.334 34.9925H325.203V49H323.676V32.2727H325.154L335.07 46.2965H335.201V32.2727H336.703ZM343.911 49V32.2727H353.614V33.6449H345.438V39.9421H353.099V41.3143H345.438V47.6278H353.777V49H343.911ZM369.409 36.4545C369.317 35.5234 368.906 34.7829 368.176 34.233C367.446 33.683 366.529 33.408 365.424 33.408C364.645 33.408 363.959 33.5414 363.365 33.8082C362.777 34.075 362.314 34.4453 361.977 34.919C361.645 35.3873 361.479 35.9209 361.479 36.5199C361.479 36.9609 361.574 37.3475 361.764 37.6797C361.955 38.0118 362.211 38.2977 362.532 38.5373C362.859 38.7714 363.218 38.9729 363.61 39.1417C364.008 39.3105 364.408 39.4521 364.811 39.5664L366.575 40.0728C367.109 40.2198 367.642 40.4077 368.176 40.6364C368.71 40.8651 369.197 41.1536 369.638 41.5021C370.085 41.8452 370.441 42.2672 370.708 42.7681C370.98 43.2636 371.116 43.8598 371.116 44.5568C371.116 45.4498 370.885 46.253 370.422 46.9663C369.959 47.6796 369.295 48.2459 368.429 48.6651C367.564 49.079 366.526 49.2859 365.317 49.2859C364.179 49.2859 363.191 49.098 362.353 48.7223C361.514 48.3411 360.855 47.8157 360.376 47.146C359.897 46.4762 359.627 45.7003 359.567 44.8182H361.136C361.19 45.477 361.408 46.0352 361.789 46.4925C362.17 46.9499 362.666 47.2984 363.276 47.538C363.885 47.7721 364.566 47.8892 365.317 47.8892C366.151 47.8892 366.891 47.7504 367.539 47.4727C368.192 47.1895 368.704 46.7975 369.075 46.2965C369.45 45.7901 369.638 45.2021 369.638 44.5323C369.638 43.966 369.491 43.4923 369.197 43.1112C368.903 42.7246 368.492 42.4006 367.964 42.1392C367.441 41.8778 366.834 41.6464 366.142 41.445L364.141 40.8569C362.829 40.4648 361.811 39.9231 361.087 39.2315C360.362 38.54 360 37.6579 360 36.5852C360 35.6868 360.24 34.8973 360.719 34.2166C361.204 33.5305 361.857 32.9969 362.679 32.6158C363.507 32.2292 364.435 32.0359 365.464 32.0359C366.504 32.0359 367.425 32.2264 368.225 32.6076C369.026 32.9888 369.66 33.5142 370.128 34.1839C370.602 34.8482 370.855 35.6051 370.888 36.4545H369.409Z" fill="#232323"/>
<path d="M412.952 36.9926L419.474 42.7087L425.996 36.9926L428 38.7523L419.474 46.2407L410.948 38.7523L412.952 36.9926Z" fill="black"/>
<defs>
<filter id="filter0_d_128_172" x="41.9478" y="28.5454" width="29.5144" height="33.4546" filterUnits="userSpaceOnUse" color-interpolation-filters="sRGB">
<feFlood flood-opacity="0" result="BackgroundImageFix"/>
<feColorMatrix in="SourceAlpha" type="matrix" values="0 0 0 0 0 0 0 0 0 0 0 0 0 0 0 0 0 0 127 0" result="hardAlpha"/>
<feOffset dy="4"/>
<feGaussianBlur stdDeviation="2"/>
<feComposite in2="hardAlpha" operator="out"/>
<feColorMatrix type="matrix" values="0 0 0 0 0 0 0 0 0 0 0 0 0 0 0 0 0 0 0.25 0"/>
<feBlend mode="normal" in2="BackgroundImageFix" result="effect1_dropShadow_128_172"/>
<feBlend mode="normal" in="SourceGraphic" in2="effect1_dropShadow_128_172" result="shape"/>
</filter>
</defs>
</svg>
